PathFileType	4	(X/Y/Z)	C:\Users\86182\Documents\cortex\Trimmed_M4_L4.trc
DataRate	CameraRate	NumFrames	NumMarkers	Units	OrigDataRate	OrigDataStartFrame	OrigNumFrames
100.00	100.00	       126	2	mm	100.00	721	       901
Frame#	Time	gripper			box			
		X1	Y1	Z1	X2	Y2	Z2	

721	7.200	276.24686	151.25105	292.60809	277.54471	149.11800	157.49533	
722	7.210	276.25122	151.25449	292.60117	277.54846	149.11937	157.49051	
723	7.220	276.25433	151.25746	292.59326	277.55206	149.12038	157.48602	
724	7.230	276.25601	151.25964	292.58569	277.55505	149.12097	157.48256	
725	7.240	276.25650	151.26082	292.58008	277.55695	149.12140	157.48056	
726	7.250	276.25595	151.26088	292.57770	277.55737	149.12183	157.48032	
727	7.260	276.25452	151.25981	292.57928	277.55618	149.12215	157.48181	
728	7.270	276.25217	151.25761	292.58456	277.55359	149.12210	157.48474	
729	7.280	276.24869	151.25436	292.59259	277.55008	149.12144	157.48871	
730	7.290	276.24399	151.25029	292.60184	277.54630	149.12018	157.49326	
731	7.300	276.23846	151.24588	292.61066	277.54263	149.11844	157.49783	
732	7.310	276.23303	151.24188	292.61755	277.53952	149.11658	157.50192	
733	7.320	276.22906	151.23917	292.62143	277.53729	149.11511	157.50479	
734	7.330	276.22784	151.23843	292.62192	277.53625	149.11459	157.50580	
735	7.340	276.22989	151.23993	292.61911	277.53659	149.11537	157.50449	
736	7.350	276.23453	151.24319	292.61346	277.53815	149.11734	157.50107	
737	7.360	276.24026	151.24734	292.60583	277.54053	149.11998	157.49643	
738	7.370	276.24570	151.25143	292.59729	277.54318	149.12253	157.49173	
739	7.380	276.25003	151.25482	292.58929	277.54584	149.12448	157.48782	
740	7.390	276.25314	151.25717	292.58328	277.54819	149.12558	157.48526	
741	7.400	276.25525	151.25835	292.58008	277.55008	149.12573	157.48425	
742	7.410	276.25656	151.25836	292.57996	277.55112	149.12494	157.48489	
743	7.420	276.25714	151.25735	292.58276	277.55106	149.12334	157.48706	
744	7.430	276.25699	151.25562	292.58807	277.54987	149.12115	157.49043	
745	7.440	276.25589	151.25345	292.59509	277.54776	149.11868	157.49454	
746	7.450	276.25388	151.25121	292.60260	277.54514	149.11626	157.49881	
747	7.460	276.25113	151.24924	292.60925	277.54245	149.11424	157.50264	
748	7.470	276.24817	151.24782	292.61371	277.54016	149.11301	157.50531	
749	7.480	276.24548	151.24716	292.61499	277.53879	149.11287	157.50623	
750	7.490	276.24371	151.24747	292.61301	277.53851	149.11400	157.50510	
751	7.500	276.24310	151.24875	292.60825	277.53931	149.11632	157.50198	
752	7.510	276.24365	151.25076	292.60181	277.54086	149.11949	157.49734	
753	7.520	276.24500	151.25308	292.59503	277.54272	149.12291	157.49207	
754	7.530	276.24661	151.25525	292.58914	277.54443	149.12587	157.48718	
755	7.540	276.24814	151.25693	292.58505	277.54575	149.12782	157.48349	
756	7.550	276.24945	151.25790	292.58344	277.54660	149.12846	157.48157	
757	7.560	276.25031	151.25806	292.58450	277.54709	149.12770	157.48178	
758	7.570	276.25061	151.25732	292.58823	277.54733	149.12553	157.48413	
759	7.580	276.25024	151.25572	292.59418	277.54730	149.12212	157.48837	
760	7.590	276.24933	151.25346	292.60144	277.54688	149.11780	157.49380	
761	7.600	276.24817	151.25098	292.60880	277.54611	149.11339	157.49951	
762	7.610	276.24731	151.24879	292.61478	277.54501	149.10994	157.50427	
763	7.620	276.24722	151.24747	292.61823	277.54382	149.10835	157.50705	
764	7.630	276.24820	151.24734	292.61847	277.54297	149.10901	157.50723	
765	7.640	276.25003	151.24844	292.61569	277.54285	149.11160	157.50491	
766	7.650	276.25204	151.25041	292.61041	277.54352	149.11543	157.50081	
767	7.660	276.25366	151.25276	292.60355	277.54468	149.11964	157.49594	
768	7.670	276.25452	151.25507	292.59613	277.54602	149.12349	157.49129	
769	7.680	276.25455	151.25705	292.58908	277.54724	149.12654	157.48746	
770	7.690	276.25391	151.25856	292.58313	277.54803	149.12857	157.48485	
771	7.700	276.25281	151.25938	292.57904	277.54819	149.12946	157.48369	
772	7.710	276.25134	151.25937	292.57755	277.54761	149.12924	157.48404	
773	7.720	276.24945	151.25839	292.57904	277.54636	149.12799	157.48575	
774	7.730	276.24701	151.25641	292.58340	277.54471	149.12585	157.48857	
775	7.740	276.24399	151.25356	292.58997	277.54294	149.12303	157.49222	
776	7.750	276.24072	151.25017	292.59793	277.54147	149.11983	157.49615	
777	7.760	276.23798	151.24690	292.60608	277.54083	149.11667	157.49973	
778	7.770	276.23672	151.24455	292.61310	277.54138	149.11397	157.50229	
779	7.780	276.23761	151.24370	292.61774	277.54330	149.11208	157.50323	
780	7.790	276.24054	151.24449	292.61926	277.54645	149.11131	157.50232	
781	7.800	276.24493	151.24675	292.61746	277.55035	149.11176	157.49966	
782	7.810	276.24979	151.24998	292.61273	277.55420	149.11325	157.49597	
783	7.820	276.25406	151.25349	292.60608	277.55707	149.11549	157.49210	
784	7.830	276.25717	151.25665	292.59891	277.55838	149.11803	157.48883	
785	7.840	276.25897	151.25906	292.59235	277.55811	149.12036	157.48674	
786	7.850	276.25955	151.26054	292.58740	277.55658	149.12199	157.48608	
787	7.860	276.25912	151.26106	292.58472	277.55420	149.12260	157.48694	
788	7.870	276.25787	151.26068	292.58459	277.55124	149.12221	157.48914	
789	7.880	276.25586	151.25946	292.58676	277.54800	149.12108	157.49225	
790	7.890	276.25323	151.25757	292.59070	277.54471	149.11955	157.49577	
791	7.900	276.25024	151.25519	292.59586	277.54178	149.11794	157.49918	
792	7.910	276.24713	151.25267	292.60138	277.53961	149.11656	157.50186	
793	7.920	276.24435	151.25038	292.60620	277.53839	149.11569	157.50346	
794	7.930	276.24234	151.24879	292.60941	277.53830	149.11554	157.50369	
795	7.940	276.24152	151.24823	292.61020	277.53931	149.11618	157.50246	
796	7.950	276.24197	151.24876	292.60846	277.54120	149.11755	157.49988	
797	7.960	276.24344	151.25015	292.60443	277.54373	149.11940	157.49648	
798	7.970	276.24564	151.25204	292.59894	277.54645	149.12129	157.49286	
799	7.980	276.24832	151.25401	292.59311	277.54904	149.12279	157.48967	
800	7.990	276.25140	151.25572	292.58832	277.55124	149.12357	157.48743	
801	8.000	276.25470	151.25691	292.58551	277.55264	149.12346	157.48653	
802	8.010	276.25790	151.25746	292.58508	277.55298	149.12253	157.48712	
803	8.020	276.26065	151.25748	292.58691	277.55237	149.12099	157.48895	
804	8.030	276.26245	151.25710	292.59048	277.55118	149.11922	157.49146	
805	8.040	276.26303	151.25644	292.59497	277.54965	149.11765	157.49408	
806	8.050	276.26230	151.25557	292.59943	277.54773	149.11646	157.49655	
807	8.060	276.26056	151.25461	292.60315	277.54538	149.11565	157.49893	
808	8.070	276.25809	151.25366	292.60565	277.54288	149.11508	157.50116	
809	8.080	276.25519	151.25287	292.60687	277.54065	149.11478	157.50290	
810	8.090	276.25229	151.25233	292.60681	277.53912	149.11494	157.50372	
811	8.100	276.25006	151.25223	292.60571	277.53857	149.11583	157.50323	
812	8.110	276.24915	151.25275	292.60385	277.53903	149.11748	157.50134	
813	8.120	276.24951	151.25380	292.60156	277.54025	149.11969	157.49841	
814	8.130	276.25067	151.25517	292.59903	277.54193	149.12209	157.49503	
815	8.140	276.25220	151.25662	292.59622	277.54364	149.12421	157.49188	
816	8.150	276.25369	151.25797	292.59344	277.54514	149.12563	157.48956	
817	8.160	276.25510	151.25902	292.59103	277.54617	149.12607	157.48849	
818	8.170	276.25626	151.25966	292.58954	277.54669	149.12540	157.48883	
819	8.180	276.25726	151.25983	292.58932	277.54678	149.12369	157.49045	
820	8.190	276.25812	151.25946	292.59052	277.54666	149.12137	157.49283	
821	8.200	276.25876	151.25859	292.59302	277.54657	149.11894	157.49527	
822	8.210	276.25900	151.25725	292.59656	277.54660	149.11690	157.49727	
823	8.220	276.25870	151.25558	292.60074	277.54663	149.11560	157.49854	
824	8.230	276.25772	151.25378	292.60483	277.54651	149.11517	157.49899	
825	8.240	276.25632	151.25217	292.60800	277.54620	149.11559	157.49872	
826	8.250	276.25500	151.25124	292.60941	277.54581	149.11673	157.49774	
827	8.260	276.25403	151.25136	292.60843	277.54526	149.11853	157.49615	
828	8.270	276.25323	151.25250	292.60489	277.54446	149.12077	157.49417	
829	8.280	276.25235	151.25432	292.59943	277.54343	149.12312	157.49222	
830	8.290	276.25128	151.25630	292.59326	277.54221	149.12529	157.49048	
831	8.300	276.25034	151.25807	292.58792	277.54111	149.12718	157.48901	
832	8.310	276.24985	151.25938	292.58493	277.54047	149.12859	157.48795	
833	8.320	276.25046	151.26009	292.58530	277.54080	149.12924	157.48741	
834	8.330	276.25275	151.26015	292.58923	277.54300	149.12888	157.48746	
835	8.340	276.25729	151.25964	292.59589	277.54834	149.12726	157.48782	
836	8.350	276.26453	151.25862	292.60382	277.55814	149.12422	157.48820	
837	8.360	276.27481	151.25708	292.61145	277.57343	149.11931	157.48856	
838	8.370	276.28827	151.25510	292.61749	277.59433	149.11205	157.48920	
839	8.380	276.30444	151.25273	292.62122	277.61996	149.10223	157.49039	
840	8.390	276.32193	151.25014	292.62268	277.64822	149.09041	157.49219	
841	8.400	276.33859	151.24763	292.62244	277.67587	149.07790	157.49432	
842	8.410	276.35239	151.24570	292.62115	277.69913	149.06654	157.49631	
843	8.420	276.36200	151.24469	292.61920	277.71417	149.05840	157.49759	
844	8.430	276.36670	151.24480	292.61661	277.71786	149.05534	157.49762	
845	8.440	276.36606	151.24608	292.61319	277.70798	149.05875	157.49622	
846	8.450	276.35962	151.24834	292.60849	277.68298	149.06879	157.49350	
